<svg xmlns="http://www.w3.org/2000/svg" fill="#fff" viewBox="0 0 242.45 252.33"><path d="m224.74 109-84.11-84.1h84.11z" opacity=".7"/><path d="M81.72 0h47.68l36.44 36.43H81.72z" opacity=".7"/><path d="M84.45 84.12.34 0h101.13v84.11zm73.89 84.1 84.11 84.11h-84.11z" opacity=".9"/><path d="m101.47 168.23-84.1-84.12h84.11v84.11zm90.58-42.57L125 58.57h67.08zm7.84 118.876" opacity=".7"/><path d="m101.47 67-67-67h67z" opacity=".9"/><path d="m123.95 168.22 84.11 84.11h-84.11z" opacity=".8"/><path d="m209.08 201.8-84-84h84z" opacity=".7"/><path d="m125 58.57 83.09 83.09H125z" opacity=".9"/><path d="M101.47 252 0 150.51h101.47V252z" opacity=".7"/></svg>