<svg xmlns="http://www.w3.org/2000/svg" fill="none" viewBox="0 0 74 76"><path fill="#fff" d="M72.4 35.76 39.8 3.16 36.64 0 12.1 24.54.88 35.76a3 3 0 0 0 0 4.24L23.3 62.42l13.34 13.34 24.54-24.54.38-.38L72.4 40a3 3 0 0 0 0-4.24zM36.64 49.08l-11.2-11.2 11.2-11.2 11.2 11.2-11.2 11.2z"/><path fill="url(#a)" d="M36.64 26.68A18.86 18.86 0 0 1 36.56.09l-24.51 24.5 13.34 13.34 11.25-11.25z"/><path fill="url(#b)" d="M47.87 37.85 36.64 49.08a18.86 18.86 0 0 1 0 26.68l24.57-24.57-13.34-13.34z"/><defs><linearGradient id="a" x1="34.64" x2="19" y1="15.35" y2="30.99" gradientUnits="userSpaceOnUse"><stop offset=".18" stop-color="#BBB"/><stop offset="1" stop-color="#fff"/></linearGradient><linearGradient id="b" x1="56" x2="45.5" y1="46.5" y2="64" gradientUnits="userSpaceOnUse"><stop offset=".1" stop-color="#fff"/><stop offset="1" stop-color="#BBB"/></linearGradient></defs></svg>